<svg width="184" height="38" viewBox="0 0 184 38" fill="none" xmlns="http://www.w3.org/2000/svg">
<rect x="19.3241" y="0.648193" width="26.4117" height="26.4117" rx="4" transform="rotate(45 19.3241 0.648193)" fill="#90C200"/>
<rect x="19.5237" y="4.74268" width="20.339" height="20.9035" rx="10.1695" transform="rotate(45 19.5237 4.74268)" fill="white"/>
<rect x="19.5237" y="4.74268" width="20.339" height="20.9035" rx="10.1695" transform="rotate(45 19.5237 4.74268)" fill="white"/>
<rect x="19.5237" y="12.749" width="9.01623" height="9.58077" rx="4.50812" transform="rotate(45 19.5237 12.749)" fill="white"/>
<rect x="19.5237" y="12.749" width="9.01623" height="9.58077" rx="4.50812" transform="rotate(45 19.5237 12.749)" fill="#264339"/>
<path d="M45.8438 20.7891V20.543C45.8438 19.6133 45.9766 18.7578 46.2422 17.9766C46.5078 17.1875 46.8945 16.5039 47.4023 15.9258C47.9102 15.3477 48.5312 14.8984 49.2656 14.5781C50 14.25 50.8359 14.0859 51.7734 14.0859C52.7266 14.0859 53.5703 14.25 54.3047 14.5781C55.0469 14.8984 55.6719 15.3477 56.1797 15.9258C56.6875 16.5039 57.0742 17.1875 57.3398 17.9766C57.6055 18.7578 57.7383 19.6133 57.7383 20.543V20.7891C57.7383 21.7109 57.6055 22.5664 57.3398 23.3555C57.0742 24.1367 56.6875 24.8203 56.1797 25.4062C55.6719 25.9844 55.0508 26.4336 54.3164 26.7539C53.582 27.0742 52.7422 27.2344 51.7969 27.2344C50.8594 27.2344 50.0195 27.0742 49.2773 26.7539C48.5352 26.4336 47.9102 25.9844 47.4023 25.4062C46.8945 24.8203 46.5078 24.1367 46.2422 23.3555C45.9766 22.5664 45.8438 21.7109 45.8438 20.7891ZM48.9375 20.543V20.7891C48.9375 21.3438 48.9922 21.8633 49.1016 22.3477C49.2109 22.832 49.3789 23.2578 49.6055 23.625C49.832 23.9922 50.125 24.2812 50.4844 24.4922C50.8516 24.6953 51.2891 24.7969 51.7969 24.7969C52.2969 24.7969 52.7266 24.6953 53.0859 24.4922C53.4453 24.2812 53.7383 23.9922 53.9648 23.625C54.1992 23.2578 54.3711 22.832 54.4805 22.3477C54.5898 21.8633 54.6445 21.3438 54.6445 20.7891V20.543C54.6445 19.9961 54.5898 19.4844 54.4805 19.0078C54.3711 18.5234 54.1992 18.0977 53.9648 17.7305C53.7383 17.3555 53.4414 17.0625 53.0742 16.8516C52.7148 16.6328 52.2812 16.5234 51.7734 16.5234C51.2734 16.5234 50.8438 16.6328 50.4844 16.8516C50.125 17.0625 49.832 17.3555 49.6055 17.7305C49.3789 18.0977 49.2109 18.5234 49.1016 19.0078C48.9922 19.4844 48.9375 19.9961 48.9375 20.543ZM63.0234 17.0273V27H59.9297V14.3203H62.8359L63.0234 17.0273ZM62.5312 20.2031H61.6172C61.625 19.2812 61.75 18.4453 61.9922 17.6953C62.2344 16.9453 62.5742 16.3008 63.0117 15.7617C63.457 15.2227 63.9844 14.8086 64.5938 14.5195C65.2031 14.2305 65.8828 14.0859 66.6328 14.0859C67.2422 14.0859 67.793 14.1719 68.2852 14.3438C68.7773 14.5156 69.1992 14.7891 69.5508 15.1641C69.9102 15.5391 70.1836 16.0312 70.3711 16.6406C70.5664 17.2422 70.6641 17.9844 70.6641 18.8672V27H67.5469V18.8438C67.5469 18.2656 67.4609 17.8086 67.2891 17.4727C67.125 17.1367 66.8828 16.8984 66.5625 16.7578C66.25 16.6172 65.8633 16.5469 65.4023 16.5469C64.9258 16.5469 64.5078 16.6445 64.1484 16.8398C63.7969 17.0273 63.5 17.2891 63.2578 17.625C63.0234 17.9609 62.8438 18.3477 62.7188 18.7852C62.5938 19.2227 62.5312 19.6953 62.5312 20.2031ZM81 24.3047V9H84.1172V27H81.3047L81 24.3047ZM72.8555 20.8125V20.5664C72.8555 19.5977 72.9648 18.7188 73.1836 17.9297C73.4102 17.1328 73.7383 16.4492 74.168 15.8789C74.5977 15.3086 75.1172 14.8672 75.7266 14.5547C76.3438 14.2422 77.043 14.0859 77.8242 14.0859C78.582 14.0859 79.2422 14.2383 79.8047 14.543C80.375 14.8477 80.8594 15.2812 81.2578 15.8438C81.6641 16.4062 81.9883 17.0742 82.2305 17.8477C82.4727 18.6133 82.6484 19.457 82.7578 20.3789V21.0469C82.6484 21.9453 82.4727 22.7695 82.2305 23.5195C81.9883 24.2695 81.6641 24.9258 81.2578 25.4883C80.8594 26.043 80.375 26.4727 79.8047 26.7773C79.2344 27.082 78.5664 27.2344 77.8008 27.2344C77.0273 27.2344 76.332 27.0742 75.7148 26.7539C75.1055 26.4336 74.5859 25.9844 74.1562 25.4062C73.7344 24.8281 73.4102 24.1484 73.1836 23.3672C72.9648 22.5859 72.8555 21.7344 72.8555 20.8125ZM75.9609 20.5664V20.8125C75.9609 21.3594 76.0078 21.8711 76.1016 22.3477C76.1953 22.8242 76.3477 23.2461 76.5586 23.6133C76.7695 23.9727 77.0391 24.2539 77.3672 24.457C77.7031 24.6602 78.1094 24.7617 78.5859 24.7617C79.1953 24.7617 79.6953 24.6289 80.0859 24.3633C80.4844 24.0898 80.793 23.7188 81.0117 23.25C81.2305 22.7734 81.3711 22.2383 81.4336 21.6445V19.8047C81.4023 19.3359 81.3203 18.9023 81.1875 18.5039C81.0625 18.1055 80.8828 17.7617 80.6484 17.4727C80.4219 17.1836 80.1406 16.957 79.8047 16.793C79.4688 16.6289 79.0703 16.5469 78.6094 16.5469C78.1328 16.5469 77.7266 16.6523 77.3906 16.8633C77.0547 17.0664 76.7812 17.3516 76.5703 17.7188C76.3594 18.0859 76.2031 18.5117 76.1016 18.9961C76.0078 19.4805 75.9609 20.0039 75.9609 20.5664ZM92.6133 27.2344C91.6523 27.2344 90.7891 27.0781 90.0234 26.7656C89.2578 26.4531 88.6055 26.0195 88.0664 25.4648C87.5352 24.9023 87.125 24.25 86.8359 23.5078C86.5547 22.7578 86.4141 21.9531 86.4141 21.0938V20.625C86.4141 19.6484 86.5547 18.7617 86.8359 17.9648C87.1172 17.1602 87.5156 16.4688 88.0312 15.8906C88.5469 15.3125 89.1641 14.8672 89.8828 14.5547C90.6016 14.2422 91.3945 14.0859 92.2617 14.0859C93.1602 14.0859 93.9531 14.2383 94.6406 14.543C95.3281 14.8398 95.9023 15.2617 96.3633 15.8086C96.8242 16.3555 97.1719 17.0117 97.4062 17.7773C97.6406 18.5352 97.7578 19.375 97.7578 20.2969V21.5977H87.8203V19.4648H94.7109V19.2305C94.6953 18.7383 94.6016 18.2891 94.4297 17.8828C94.2578 17.4688 93.9922 17.1406 93.6328 16.8984C93.2734 16.6484 92.8086 16.5234 92.2383 16.5234C91.7773 16.5234 91.375 16.625 91.0312 16.8281C90.6953 17.0234 90.4141 17.3047 90.1875 17.6719C89.9688 18.0312 89.8047 18.4609 89.6953 18.9609C89.5859 19.4609 89.5312 20.0156 89.5312 20.625V21.0938C89.5312 21.625 89.6016 22.1172 89.7422 22.5703C89.8906 23.0234 90.1055 23.418 90.3867 23.7539C90.6758 24.082 91.0195 24.3398 91.418 24.5273C91.8242 24.707 92.2852 24.7969 92.8008 24.7969C93.4492 24.7969 94.0352 24.6719 94.5586 24.4219C95.0898 24.1641 95.5508 23.7852 95.9414 23.2852L97.5 24.9023C97.2344 25.293 96.875 25.668 96.4219 26.0273C95.9766 26.3867 95.4375 26.6797 94.8047 26.9062C94.1719 27.125 93.4414 27.2344 92.6133 27.2344Z" fill="white"/>
<path d="M112.793 24.3047V18.457C112.793 18.0273 112.719 17.6562 112.57 17.3438C112.422 17.0312 112.195 16.7891 111.891 16.6172C111.586 16.4453 111.199 16.3594 110.73 16.3594C110.316 16.3594 109.953 16.4297 109.641 16.5703C109.336 16.7109 109.102 16.9102 108.938 17.168C108.773 17.418 108.691 17.707 108.691 18.0352H105.586C105.586 17.5117 105.711 17.0156 105.961 16.5469C106.211 16.0703 106.566 15.6484 107.027 15.2812C107.496 14.9062 108.055 14.6133 108.703 14.4023C109.359 14.1914 110.094 14.0859 110.906 14.0859C111.867 14.0859 112.723 14.25 113.473 14.5781C114.23 14.8984 114.824 15.3828 115.254 16.0312C115.691 16.6797 115.91 17.4961 115.91 18.4805V24.0117C115.91 24.6445 115.949 25.1875 116.027 25.6406C116.113 26.0859 116.238 26.4727 116.402 26.8008V27H113.25C113.102 26.6797 112.988 26.2734 112.91 25.7812C112.832 25.2812 112.793 24.7891 112.793 24.3047ZM113.227 19.2773L113.25 21.1172H111.293C110.809 21.1172 110.383 21.168 110.016 21.2695C109.648 21.3633 109.348 21.5039 109.113 21.6914C108.879 21.8711 108.703 22.0898 108.586 22.3477C108.469 22.5977 108.41 22.8828 108.41 23.2031C108.41 23.5156 108.48 23.7969 108.621 24.0469C108.77 24.2969 108.98 24.4961 109.254 24.6445C109.535 24.7852 109.863 24.8555 110.238 24.8555C110.785 24.8555 111.262 24.7461 111.668 24.5273C112.074 24.3008 112.391 24.0273 112.617 23.707C112.844 23.3867 112.965 23.082 112.98 22.793L113.871 24.1289C113.762 24.4492 113.598 24.7891 113.379 25.1484C113.16 25.5078 112.879 25.8438 112.535 26.1562C112.191 26.4688 111.777 26.7266 111.293 26.9297C110.809 27.1328 110.246 27.2344 109.605 27.2344C108.785 27.2344 108.051 27.0703 107.402 26.7422C106.754 26.4141 106.242 25.9648 105.867 25.3945C105.492 24.8242 105.305 24.1758 105.305 23.4492C105.305 22.7773 105.43 22.1836 105.68 21.668C105.93 21.1523 106.301 20.7188 106.793 20.3672C107.285 20.0078 107.895 19.7383 108.621 19.5586C109.355 19.3711 110.195 19.2773 111.141 19.2773H113.227ZM125.672 23.5312C125.672 23.2656 125.602 23.0273 125.461 22.8164C125.32 22.6055 125.055 22.4141 124.664 22.2422C124.281 22.0625 123.719 21.8945 122.977 21.7383C122.32 21.5977 121.715 21.4219 121.16 21.2109C120.605 21 120.129 20.7461 119.73 20.4492C119.332 20.1445 119.02 19.7891 118.793 19.3828C118.574 18.9688 118.465 18.4922 118.465 17.9531C118.465 17.4297 118.578 16.9375 118.805 16.4766C119.031 16.0078 119.359 15.5977 119.789 15.2461C120.219 14.8867 120.742 14.6055 121.359 14.4023C121.977 14.1914 122.672 14.0859 123.445 14.0859C124.523 14.0859 125.449 14.2617 126.223 14.6133C127.004 14.9648 127.602 15.4492 128.016 16.0664C128.43 16.6758 128.637 17.3633 128.637 18.1289H125.543C125.543 17.793 125.465 17.4883 125.309 17.2148C125.16 16.9414 124.93 16.7227 124.617 16.5586C124.305 16.3867 123.91 16.3008 123.434 16.3008C123.004 16.3008 122.641 16.3711 122.344 16.5117C122.055 16.6523 121.836 16.8359 121.688 17.0625C121.539 17.2891 121.465 17.5391 121.465 17.8125C121.465 18.0156 121.504 18.1992 121.582 18.3633C121.668 18.5195 121.805 18.6641 121.992 18.7969C122.18 18.9297 122.434 19.0508 122.754 19.1602C123.082 19.2695 123.484 19.375 123.961 19.4766C124.906 19.6641 125.73 19.9141 126.434 20.2266C127.145 20.5312 127.699 20.9375 128.098 21.4453C128.496 21.9531 128.695 22.6016 128.695 23.3906C128.695 23.9531 128.574 24.4688 128.332 24.9375C128.09 25.3984 127.738 25.8008 127.277 26.1445C126.816 26.4883 126.266 26.7578 125.625 26.9531C124.984 27.1406 124.262 27.2344 123.457 27.2344C122.293 27.2344 121.309 27.0273 120.504 26.6133C119.699 26.1914 119.09 25.6602 118.676 25.0195C118.262 24.3711 118.055 23.6992 118.055 23.0039H121.02C121.043 23.4961 121.176 23.8906 121.418 24.1875C121.66 24.4844 121.965 24.6992 122.332 24.832C122.707 24.957 123.102 25.0195 123.516 25.0195C123.984 25.0195 124.379 24.957 124.699 24.832C125.02 24.6992 125.262 24.5234 125.426 24.3047C125.59 24.0781 125.672 23.8203 125.672 23.5312ZM138.023 23.5312C138.023 23.2656 137.953 23.0273 137.812 22.8164C137.672 22.6055 137.406 22.4141 137.016 22.2422C136.633 22.0625 136.07 21.8945 135.328 21.7383C134.672 21.5977 134.066 21.4219 133.512 21.2109C132.957 21 132.48 20.7461 132.082 20.4492C131.684 20.1445 131.371 19.7891 131.145 19.3828C130.926 18.9688 130.816 18.4922 130.816 17.9531C130.816 17.4297 130.93 16.9375 131.156 16.4766C131.383 16.0078 131.711 15.5977 132.141 15.2461C132.57 14.8867 133.094 14.6055 133.711 14.4023C134.328 14.1914 135.023 14.0859 135.797 14.0859C136.875 14.0859 137.801 14.2617 138.574 14.6133C139.355 14.9648 139.953 15.4492 140.367 16.0664C140.781 16.6758 140.988 17.3633 140.988 18.1289H137.895C137.895 17.793 137.816 17.4883 137.66 17.2148C137.512 16.9414 137.281 16.7227 136.969 16.5586C136.656 16.3867 136.262 16.3008 135.785 16.3008C135.355 16.3008 134.992 16.3711 134.695 16.5117C134.406 16.6523 134.188 16.8359 134.039 17.0625C133.891 17.2891 133.816 17.5391 133.816 17.8125C133.816 18.0156 133.855 18.1992 133.934 18.3633C134.02 18.5195 134.156 18.6641 134.344 18.7969C134.531 18.9297 134.785 19.0508 135.105 19.1602C135.434 19.2695 135.836 19.375 136.312 19.4766C137.258 19.6641 138.082 19.9141 138.785 20.2266C139.496 20.5312 140.051 20.9375 140.449 21.4453C140.848 21.9531 141.047 22.6016 141.047 23.3906C141.047 23.9531 140.926 24.4688 140.684 24.9375C140.441 25.3984 140.09 25.8008 139.629 26.1445C139.168 26.4883 138.617 26.7578 137.977 26.9531C137.336 27.1406 136.613 27.2344 135.809 27.2344C134.645 27.2344 133.66 27.0273 132.855 26.6133C132.051 26.1914 131.441 25.6602 131.027 25.0195C130.613 24.3711 130.406 23.6992 130.406 23.0039H133.371C133.395 23.4961 133.527 23.8906 133.77 24.1875C134.012 24.4844 134.316 24.6992 134.684 24.832C135.059 24.957 135.453 25.0195 135.867 25.0195C136.336 25.0195 136.73 24.957 137.051 24.832C137.371 24.6992 137.613 24.5234 137.777 24.3047C137.941 24.0781 138.023 23.8203 138.023 23.5312ZM146.684 14.3203V27H143.578V14.3203H146.684ZM143.367 11.0039C143.367 10.543 143.523 10.1602 143.836 9.85547C144.156 9.55078 144.586 9.39844 145.125 9.39844C145.664 9.39844 146.09 9.55078 146.402 9.85547C146.723 10.1602 146.883 10.543 146.883 11.0039C146.883 11.457 146.723 11.8359 146.402 12.1406C146.09 12.4453 145.664 12.5977 145.125 12.5977C144.586 12.5977 144.156 12.4453 143.836 12.1406C143.523 11.8359 143.367 11.457 143.367 11.0039ZM156.609 23.5312C156.609 23.2656 156.539 23.0273 156.398 22.8164C156.258 22.6055 155.992 22.4141 155.602 22.2422C155.219 22.0625 154.656 21.8945 153.914 21.7383C153.258 21.5977 152.652 21.4219 152.098 21.2109C151.543 21 151.066 20.7461 150.668 20.4492C150.27 20.1445 149.957 19.7891 149.73 19.3828C149.512 18.9688 149.402 18.4922 149.402 17.9531C149.402 17.4297 149.516 16.9375 149.742 16.4766C149.969 16.0078 150.297 15.5977 150.727 15.2461C151.156 14.8867 151.68 14.6055 152.297 14.4023C152.914 14.1914 153.609 14.0859 154.383 14.0859C155.461 14.0859 156.387 14.2617 157.16 14.6133C157.941 14.9648 158.539 15.4492 158.953 16.0664C159.367 16.6758 159.574 17.3633 159.574 18.1289H156.48C156.48 17.793 156.402 17.4883 156.246 17.2148C156.098 16.9414 155.867 16.7227 155.555 16.5586C155.242 16.3867 154.848 16.3008 154.371 16.3008C153.941 16.3008 153.578 16.3711 153.281 16.5117C152.992 16.6523 152.773 16.8359 152.625 17.0625C152.477 17.2891 152.402 17.5391 152.402 17.8125C152.402 18.0156 152.441 18.1992 152.52 18.3633C152.605 18.5195 152.742 18.6641 152.93 18.7969C153.117 18.9297 153.371 19.0508 153.691 19.1602C154.02 19.2695 154.422 19.375 154.898 19.4766C155.844 19.6641 156.668 19.9141 157.371 20.2266C158.082 20.5312 158.637 20.9375 159.035 21.4453C159.434 21.9531 159.633 22.6016 159.633 23.3906C159.633 23.9531 159.512 24.4688 159.27 24.9375C159.027 25.3984 158.676 25.8008 158.215 26.1445C157.754 26.4883 157.203 26.7578 156.562 26.9531C155.922 27.1406 155.199 27.2344 154.395 27.2344C153.23 27.2344 152.246 27.0273 151.441 26.6133C150.637 26.1914 150.027 25.6602 149.613 25.0195C149.199 24.3711 148.992 23.6992 148.992 23.0039H151.957C151.98 23.4961 152.113 23.8906 152.355 24.1875C152.598 24.4844 152.902 24.6992 153.27 24.832C153.645 24.957 154.039 25.0195 154.453 25.0195C154.922 25.0195 155.316 24.957 155.637 24.832C155.957 24.6992 156.199 24.5234 156.363 24.3047C156.527 24.0781 156.609 23.8203 156.609 23.5312ZM167.988 14.3203V16.5469H160.723V14.3203H167.988ZM162.668 11.2031H165.773V23.3438C165.773 23.7188 165.824 24.0078 165.926 24.2109C166.027 24.4141 166.18 24.5508 166.383 24.6211C166.586 24.6914 166.828 24.7266 167.109 24.7266C167.312 24.7266 167.5 24.7148 167.672 24.6914C167.844 24.668 167.988 24.6445 168.105 24.6211L168.117 26.9414C167.859 27.0273 167.566 27.0977 167.238 27.1523C166.918 27.207 166.555 27.2344 166.148 27.2344C165.453 27.2344 164.844 27.1172 164.32 26.8828C163.797 26.6406 163.391 26.2539 163.102 25.7227C162.812 25.1836 162.668 24.4727 162.668 23.5898V11.2031ZM173.332 14.3203V27H170.227V14.3203H173.332ZM170.016 11.0039C170.016 10.543 170.172 10.1602 170.484 9.85547C170.805 9.55078 171.234 9.39844 171.773 9.39844C172.312 9.39844 172.738 9.55078 173.051 9.85547C173.371 10.1602 173.531 10.543 173.531 11.0039C173.531 11.457 173.371 11.8359 173.051 12.1406C172.738 12.4453 172.312 12.5977 171.773 12.5977C171.234 12.5977 170.805 12.4453 170.484 12.1406C170.172 11.8359 170.016 11.457 170.016 11.0039ZM179.379 16.9102V27H176.285V14.3203H179.215L179.379 16.9102ZM183.234 14.2383L183.188 17.1211C183.016 17.0898 182.82 17.0664 182.602 17.0508C182.391 17.0352 182.191 17.0273 182.004 17.0273C181.527 17.0273 181.109 17.0938 180.75 17.2266C180.391 17.3516 180.09 17.5352 179.848 17.7773C179.613 18.0195 179.434 18.3164 179.309 18.668C179.184 19.0117 179.113 19.4023 179.098 19.8398L178.43 19.7578C178.43 18.9531 178.512 18.207 178.676 17.5195C178.84 16.832 179.078 16.2305 179.391 15.7148C179.703 15.1992 180.094 14.8008 180.562 14.5195C181.039 14.2305 181.586 14.0859 182.203 14.0859C182.375 14.0859 182.559 14.1016 182.754 14.1328C182.957 14.1562 183.117 14.1914 183.234 14.2383Z" fill="#90C200"/>
</svg>
