<?xml version="1.0" encoding="utf-8"?>
<svg viewBox="0 0 3000 3500" style="enable-background:new 0 0 3000 3471.1" xmlns="http://www.w3.org/2000/svg">
  <defs>
    <style>
      .st1,
      .st3 {
        fill-rule: evenodd;
        clip-rule: evenodd;
        fill: #fefefe
      }

      .st3 {
        fill: #fefdfe
      }
    </style>
  </defs>
  <path
    d="M1497.9 0c21.7 24 42.6 49 62.6 75.2 347.9 406.5 788.3 571.9 1321.2 496.3 38.6-5.9 77.2-12 115.6-18.3 13.8 362.7-26.4 719.3-120.5 1069.7-124.6 440.1-334 832.7-628.3 1177.6-222.1 255.9-471.7 479.5-748.8 670.7-302.8-208.2-571.6-454.9-806.4-740.2C296.8 2233.4 70.7 1665.5 14.8 1027.3 1 869.5-3.1 711.4 2.3 553.1c118.4 22.4 237.9 34.6 358.5 36.6 357.9-1.6 668.2-122 930.9-361.4 75.4-70.5 144.2-146.6 206.2-228.3z"
    style="opacity: 0.97; fill-rule: evenodd; clip-rule: evenodd; fill: rgb(136, 136, 136);" />
  <path
    d="M 171.804 750.236 C 670.092 788.853 1105.837 676.582 1505.367 258.062 C 1776.652 574.276 2278.846 820.564 2828.229 749.365 C 2843.488 1923.511 2087.552 2867.78 1499.8 3262.8 C 1233.5 3068.8 178.865 2222.144 171.804 750.236 Z"
    style="fill-rule: evenodd; clip-rule: evenodd; fill: rgb(245, 247, 251);" />
</svg>