<svg width="184" height="38" viewBox="0 0 184 38" fill="none" xmlns="http://www.w3.org/2000/svg">
<rect x="19.3241" width="26.4117" height="26.4117" rx="4" transform="rotate(45 19.3241 0)" fill="#90C200"/>
<rect x="19.5237" y="4.09448" width="20.339" height="20.9035" rx="10.1695" transform="rotate(45 19.5237 4.09448)" fill="white"/>
<rect x="19.5237" y="4.09448" width="20.339" height="20.9035" rx="10.1695" transform="rotate(45 19.5237 4.09448)" fill="white"/>
<rect x="19.5237" y="12.1008" width="9.01623" height="9.58077" rx="4.50812" transform="rotate(45 19.5237 12.1008)" fill="white"/>
<rect x="19.5237" y="12.1008" width="9.01623" height="9.58077" rx="4.50812" transform="rotate(45 19.5237 12.1008)" fill="#264339"/>
<path d="M45.8438 20.1409V19.8948C45.8438 18.9651 45.9766 18.1096 46.2422 17.3284C46.5078 16.5393 46.8945 15.8557 47.4023 15.2776C47.9102 14.6995 48.5312 14.2502 49.2656 13.9299C50 13.6018 50.8359 13.4377 51.7734 13.4377C52.7266 13.4377 53.5703 13.6018 54.3047 13.9299C55.0469 14.2502 55.6719 14.6995 56.1797 15.2776C56.6875 15.8557 57.0742 16.5393 57.3398 17.3284C57.6055 18.1096 57.7383 18.9651 57.7383 19.8948V20.1409C57.7383 21.0627 57.6055 21.9182 57.3398 22.7073C57.0742 23.4885 56.6875 24.1721 56.1797 24.7581C55.6719 25.3362 55.0508 25.7854 54.3164 26.1057C53.582 26.426 52.7422 26.5862 51.7969 26.5862C50.8594 26.5862 50.0195 26.426 49.2773 26.1057C48.5352 25.7854 47.9102 25.3362 47.4023 24.7581C46.8945 24.1721 46.5078 23.4885 46.2422 22.7073C45.9766 21.9182 45.8438 21.0627 45.8438 20.1409ZM48.9375 19.8948V20.1409C48.9375 20.6956 48.9922 21.2151 49.1016 21.6995C49.2109 22.1838 49.3789 22.6096 49.6055 22.9768C49.832 23.344 50.125 23.6331 50.4844 23.844C50.8516 24.0471 51.2891 24.1487 51.7969 24.1487C52.2969 24.1487 52.7266 24.0471 53.0859 23.844C53.4453 23.6331 53.7383 23.344 53.9648 22.9768C54.1992 22.6096 54.3711 22.1838 54.4805 21.6995C54.5898 21.2151 54.6445 20.6956 54.6445 20.1409V19.8948C54.6445 19.3479 54.5898 18.8362 54.4805 18.3596C54.3711 17.8752 54.1992 17.4495 53.9648 17.0823C53.7383 16.7073 53.4414 16.4143 53.0742 16.2034C52.7148 15.9846 52.2812 15.8752 51.7734 15.8752C51.2734 15.8752 50.8438 15.9846 50.4844 16.2034C50.125 16.4143 49.832 16.7073 49.6055 17.0823C49.3789 17.4495 49.2109 17.8752 49.1016 18.3596C48.9922 18.8362 48.9375 19.3479 48.9375 19.8948ZM63.0234 16.3792V26.3518H59.9297V13.6721H62.8359L63.0234 16.3792ZM62.5312 19.5549H61.6172C61.625 18.6331 61.75 17.7971 61.9922 17.0471C62.2344 16.2971 62.5742 15.6526 63.0117 15.1135C63.457 14.5745 63.9844 14.1604 64.5938 13.8713C65.2031 13.5823 65.8828 13.4377 66.6328 13.4377C67.2422 13.4377 67.793 13.5237 68.2852 13.6956C68.7773 13.8674 69.1992 14.1409 69.5508 14.5159C69.9102 14.8909 70.1836 15.3831 70.3711 15.9924C70.5664 16.594 70.6641 17.3362 70.6641 18.219V26.3518H67.5469V18.1956C67.5469 17.6174 67.4609 17.1604 67.2891 16.8245C67.125 16.4885 66.8828 16.2502 66.5625 16.1096C66.25 15.969 65.8633 15.8987 65.4023 15.8987C64.9258 15.8987 64.5078 15.9963 64.1484 16.1917C63.7969 16.3792 63.5 16.6409 63.2578 16.9768C63.0234 17.3127 62.8438 17.6995 62.7188 18.137C62.5938 18.5745 62.5312 19.0471 62.5312 19.5549ZM81 23.6565V8.35181H84.1172V26.3518H81.3047L81 23.6565ZM72.8555 20.1643V19.9182C72.8555 18.9495 72.9648 18.0706 73.1836 17.2815C73.4102 16.4846 73.7383 15.801 74.168 15.2307C74.5977 14.6604 75.1172 14.219 75.7266 13.9065C76.3438 13.594 77.043 13.4377 77.8242 13.4377C78.582 13.4377 79.2422 13.5901 79.8047 13.8948C80.375 14.1995 80.8594 14.6331 81.2578 15.1956C81.6641 15.7581 81.9883 16.426 82.2305 17.1995C82.4727 17.9651 82.6484 18.8088 82.7578 19.7307V20.3987C82.6484 21.2971 82.4727 22.1213 82.2305 22.8713C81.9883 23.6213 81.6641 24.2776 81.2578 24.8401C80.8594 25.3948 80.375 25.8245 79.8047 26.1292C79.2344 26.4338 78.5664 26.5862 77.8008 26.5862C77.0273 26.5862 76.332 26.426 75.7148 26.1057C75.1055 25.7854 74.5859 25.3362 74.1562 24.7581C73.7344 24.1799 73.4102 23.5002 73.1836 22.719C72.9648 21.9377 72.8555 21.0862 72.8555 20.1643ZM75.9609 19.9182V20.1643C75.9609 20.7112 76.0078 21.2229 76.1016 21.6995C76.1953 22.176 76.3477 22.5979 76.5586 22.9651C76.7695 23.3245 77.0391 23.6057 77.3672 23.8088C77.7031 24.012 78.1094 24.1135 78.5859 24.1135C79.1953 24.1135 79.6953 23.9807 80.0859 23.7151C80.4844 23.4417 80.793 23.0706 81.0117 22.6018C81.2305 22.1252 81.3711 21.5901 81.4336 20.9963V19.1565C81.4023 18.6877 81.3203 18.2542 81.1875 17.8557C81.0625 17.4573 80.8828 17.1135 80.6484 16.8245C80.4219 16.5354 80.1406 16.3088 79.8047 16.1448C79.4688 15.9807 79.0703 15.8987 78.6094 15.8987C78.1328 15.8987 77.7266 16.0042 77.3906 16.2151C77.0547 16.4182 76.7812 16.7034 76.5703 17.0706C76.3594 17.4377 76.2031 17.8635 76.1016 18.3479C76.0078 18.8323 75.9609 19.3557 75.9609 19.9182ZM92.6133 26.5862C91.6523 26.5862 90.7891 26.4299 90.0234 26.1174C89.2578 25.8049 88.6055 25.3713 88.0664 24.8167C87.5352 24.2542 87.125 23.6018 86.8359 22.8596C86.5547 22.1096 86.4141 21.3049 86.4141 20.4456V19.9768C86.4141 19.0002 86.5547 18.1135 86.8359 17.3167C87.1172 16.512 87.5156 15.8206 88.0312 15.2424C88.5469 14.6643 89.1641 14.219 89.8828 13.9065C90.6016 13.594 91.3945 13.4377 92.2617 13.4377C93.1602 13.4377 93.9531 13.5901 94.6406 13.8948C95.3281 14.1917 95.9023 14.6135 96.3633 15.1604C96.8242 15.7073 97.1719 16.3635 97.4062 17.1292C97.6406 17.887 97.7578 18.7268 97.7578 19.6487V20.9495H87.8203V18.8167H94.7109V18.5823C94.6953 18.0901 94.6016 17.6409 94.4297 17.2346C94.2578 16.8206 93.9922 16.4924 93.6328 16.2502C93.2734 16.0002 92.8086 15.8752 92.2383 15.8752C91.7773 15.8752 91.375 15.9768 91.0312 16.1799C90.6953 16.3752 90.4141 16.6565 90.1875 17.0237C89.9688 17.3831 89.8047 17.8127 89.6953 18.3127C89.5859 18.8127 89.5312 19.3674 89.5312 19.9768V20.4456C89.5312 20.9768 89.6016 21.469 89.7422 21.9221C89.8906 22.3752 90.1055 22.7698 90.3867 23.1057C90.6758 23.4338 91.0195 23.6917 91.418 23.8792C91.8242 24.0588 92.2852 24.1487 92.8008 24.1487C93.4492 24.1487 94.0352 24.0237 94.5586 23.7737C95.0898 23.5159 95.5508 23.137 95.9414 22.637L97.5 24.2542C97.2344 24.6448 96.875 25.0198 96.4219 25.3792C95.9766 25.7385 95.4375 26.0315 94.8047 26.2581C94.1719 26.4768 93.4414 26.5862 92.6133 26.5862Z" fill="white"/>
<path d="M112.793 23.6565V17.8088C112.793 17.3792 112.719 17.0081 112.57 16.6956C112.422 16.3831 112.195 16.1409 111.891 15.969C111.586 15.7971 111.199 15.7112 110.73 15.7112C110.316 15.7112 109.953 15.7815 109.641 15.9221C109.336 16.0627 109.102 16.262 108.938 16.5198C108.773 16.7698 108.691 17.0588 108.691 17.387H105.586C105.586 16.8635 105.711 16.3674 105.961 15.8987C106.211 15.4221 106.566 15.0002 107.027 14.6331C107.496 14.2581 108.055 13.9651 108.703 13.7542C109.359 13.5432 110.094 13.4377 110.906 13.4377C111.867 13.4377 112.723 13.6018 113.473 13.9299C114.23 14.2502 114.824 14.7346 115.254 15.3831C115.691 16.0315 115.91 16.8479 115.91 17.8323V23.3635C115.91 23.9963 115.949 24.5393 116.027 24.9924C116.113 25.4377 116.238 25.8245 116.402 26.1526V26.3518H113.25C113.102 26.0315 112.988 25.6252 112.91 25.1331C112.832 24.6331 112.793 24.1409 112.793 23.6565ZM113.227 18.6292L113.25 20.469H111.293C110.809 20.469 110.383 20.5198 110.016 20.6213C109.648 20.7151 109.348 20.8557 109.113 21.0432C108.879 21.2229 108.703 21.4417 108.586 21.6995C108.469 21.9495 108.41 22.2346 108.41 22.5549C108.41 22.8674 108.48 23.1487 108.621 23.3987C108.77 23.6487 108.98 23.8479 109.254 23.9963C109.535 24.137 109.863 24.2073 110.238 24.2073C110.785 24.2073 111.262 24.0979 111.668 23.8792C112.074 23.6526 112.391 23.3792 112.617 23.0588C112.844 22.7385 112.965 22.4338 112.98 22.1448L113.871 23.4807C113.762 23.801 113.598 24.1409 113.379 24.5002C113.16 24.8596 112.879 25.1956 112.535 25.5081C112.191 25.8206 111.777 26.0784 111.293 26.2815C110.809 26.4846 110.246 26.5862 109.605 26.5862C108.785 26.5862 108.051 26.4221 107.402 26.094C106.754 25.7659 106.242 25.3167 105.867 24.7463C105.492 24.176 105.305 23.5276 105.305 22.801C105.305 22.1292 105.43 21.5354 105.68 21.0198C105.93 20.5042 106.301 20.0706 106.793 19.719C107.285 19.3596 107.895 19.0901 108.621 18.9104C109.355 18.7229 110.195 18.6292 111.141 18.6292H113.227ZM125.672 22.8831C125.672 22.6174 125.602 22.3792 125.461 22.1682C125.32 21.9573 125.055 21.7659 124.664 21.594C124.281 21.4143 123.719 21.2463 122.977 21.0901C122.32 20.9495 121.715 20.7737 121.16 20.5627C120.605 20.3518 120.129 20.0979 119.73 19.801C119.332 19.4963 119.02 19.1409 118.793 18.7346C118.574 18.3206 118.465 17.844 118.465 17.3049C118.465 16.7815 118.578 16.2893 118.805 15.8284C119.031 15.3596 119.359 14.9495 119.789 14.5979C120.219 14.2385 120.742 13.9573 121.359 13.7542C121.977 13.5432 122.672 13.4377 123.445 13.4377C124.523 13.4377 125.449 13.6135 126.223 13.9651C127.004 14.3167 127.602 14.801 128.016 15.4182C128.43 16.0276 128.637 16.7151 128.637 17.4807H125.543C125.543 17.1448 125.465 16.8401 125.309 16.5667C125.16 16.2932 124.93 16.0745 124.617 15.9104C124.305 15.7385 123.91 15.6526 123.434 15.6526C123.004 15.6526 122.641 15.7229 122.344 15.8635C122.055 16.0042 121.836 16.1877 121.688 16.4143C121.539 16.6409 121.465 16.8909 121.465 17.1643C121.465 17.3674 121.504 17.551 121.582 17.7151C121.668 17.8713 121.805 18.0159 121.992 18.1487C122.18 18.2815 122.434 18.4026 122.754 18.512C123.082 18.6213 123.484 18.7268 123.961 18.8284C124.906 19.0159 125.73 19.2659 126.434 19.5784C127.145 19.8831 127.699 20.2893 128.098 20.7971C128.496 21.3049 128.695 21.9534 128.695 22.7424C128.695 23.3049 128.574 23.8206 128.332 24.2893C128.09 24.7502 127.738 25.1526 127.277 25.4963C126.816 25.8401 126.266 26.1096 125.625 26.3049C124.984 26.4924 124.262 26.5862 123.457 26.5862C122.293 26.5862 121.309 26.3792 120.504 25.9651C119.699 25.5432 119.09 25.012 118.676 24.3713C118.262 23.7229 118.055 23.051 118.055 22.3557H121.02C121.043 22.8479 121.176 23.2424 121.418 23.5393C121.66 23.8362 121.965 24.051 122.332 24.1838C122.707 24.3088 123.102 24.3713 123.516 24.3713C123.984 24.3713 124.379 24.3088 124.699 24.1838C125.02 24.051 125.262 23.8752 125.426 23.6565C125.59 23.4299 125.672 23.1721 125.672 22.8831ZM138.023 22.8831C138.023 22.6174 137.953 22.3792 137.812 22.1682C137.672 21.9573 137.406 21.7659 137.016 21.594C136.633 21.4143 136.07 21.2463 135.328 21.0901C134.672 20.9495 134.066 20.7737 133.512 20.5627C132.957 20.3518 132.48 20.0979 132.082 19.801C131.684 19.4963 131.371 19.1409 131.145 18.7346C130.926 18.3206 130.816 17.844 130.816 17.3049C130.816 16.7815 130.93 16.2893 131.156 15.8284C131.383 15.3596 131.711 14.9495 132.141 14.5979C132.57 14.2385 133.094 13.9573 133.711 13.7542C134.328 13.5432 135.023 13.4377 135.797 13.4377C136.875 13.4377 137.801 13.6135 138.574 13.9651C139.355 14.3167 139.953 14.801 140.367 15.4182C140.781 16.0276 140.988 16.7151 140.988 17.4807H137.895C137.895 17.1448 137.816 16.8401 137.66 16.5667C137.512 16.2932 137.281 16.0745 136.969 15.9104C136.656 15.7385 136.262 15.6526 135.785 15.6526C135.355 15.6526 134.992 15.7229 134.695 15.8635C134.406 16.0042 134.188 16.1877 134.039 16.4143C133.891 16.6409 133.816 16.8909 133.816 17.1643C133.816 17.3674 133.855 17.551 133.934 17.7151C134.02 17.8713 134.156 18.0159 134.344 18.1487C134.531 18.2815 134.785 18.4026 135.105 18.512C135.434 18.6213 135.836 18.7268 136.312 18.8284C137.258 19.0159 138.082 19.2659 138.785 19.5784C139.496 19.8831 140.051 20.2893 140.449 20.7971C140.848 21.3049 141.047 21.9534 141.047 22.7424C141.047 23.3049 140.926 23.8206 140.684 24.2893C140.441 24.7502 140.09 25.1526 139.629 25.4963C139.168 25.8401 138.617 26.1096 137.977 26.3049C137.336 26.4924 136.613 26.5862 135.809 26.5862C134.645 26.5862 133.66 26.3792 132.855 25.9651C132.051 25.5432 131.441 25.012 131.027 24.3713C130.613 23.7229 130.406 23.051 130.406 22.3557H133.371C133.395 22.8479 133.527 23.2424 133.77 23.5393C134.012 23.8362 134.316 24.051 134.684 24.1838C135.059 24.3088 135.453 24.3713 135.867 24.3713C136.336 24.3713 136.73 24.3088 137.051 24.1838C137.371 24.051 137.613 23.8752 137.777 23.6565C137.941 23.4299 138.023 23.1721 138.023 22.8831ZM146.684 13.6721V26.3518H143.578V13.6721H146.684ZM143.367 10.3557C143.367 9.89478 143.523 9.51196 143.836 9.20728C144.156 8.90259 144.586 8.75024 145.125 8.75024C145.664 8.75024 146.09 8.90259 146.402 9.20728C146.723 9.51196 146.883 9.89478 146.883 10.3557C146.883 10.8088 146.723 11.1877 146.402 11.4924C146.09 11.7971 145.664 11.9495 145.125 11.9495C144.586 11.9495 144.156 11.7971 143.836 11.4924C143.523 11.1877 143.367 10.8088 143.367 10.3557ZM156.609 22.8831C156.609 22.6174 156.539 22.3792 156.398 22.1682C156.258 21.9573 155.992 21.7659 155.602 21.594C155.219 21.4143 154.656 21.2463 153.914 21.0901C153.258 20.9495 152.652 20.7737 152.098 20.5627C151.543 20.3518 151.066 20.0979 150.668 19.801C150.27 19.4963 149.957 19.1409 149.73 18.7346C149.512 18.3206 149.402 17.844 149.402 17.3049C149.402 16.7815 149.516 16.2893 149.742 15.8284C149.969 15.3596 150.297 14.9495 150.727 14.5979C151.156 14.2385 151.68 13.9573 152.297 13.7542C152.914 13.5432 153.609 13.4377 154.383 13.4377C155.461 13.4377 156.387 13.6135 157.16 13.9651C157.941 14.3167 158.539 14.801 158.953 15.4182C159.367 16.0276 159.574 16.7151 159.574 17.4807H156.48C156.48 17.1448 156.402 16.8401 156.246 16.5667C156.098 16.2932 155.867 16.0745 155.555 15.9104C155.242 15.7385 154.848 15.6526 154.371 15.6526C153.941 15.6526 153.578 15.7229 153.281 15.8635C152.992 16.0042 152.773 16.1877 152.625 16.4143C152.477 16.6409 152.402 16.8909 152.402 17.1643C152.402 17.3674 152.441 17.551 152.52 17.7151C152.605 17.8713 152.742 18.0159 152.93 18.1487C153.117 18.2815 153.371 18.4026 153.691 18.512C154.02 18.6213 154.422 18.7268 154.898 18.8284C155.844 19.0159 156.668 19.2659 157.371 19.5784C158.082 19.8831 158.637 20.2893 159.035 20.7971C159.434 21.3049 159.633 21.9534 159.633 22.7424C159.633 23.3049 159.512 23.8206 159.27 24.2893C159.027 24.7502 158.676 25.1526 158.215 25.4963C157.754 25.8401 157.203 26.1096 156.562 26.3049C155.922 26.4924 155.199 26.5862 154.395 26.5862C153.23 26.5862 152.246 26.3792 151.441 25.9651C150.637 25.5432 150.027 25.012 149.613 24.3713C149.199 23.7229 148.992 23.051 148.992 22.3557H151.957C151.98 22.8479 152.113 23.2424 152.355 23.5393C152.598 23.8362 152.902 24.051 153.27 24.1838C153.645 24.3088 154.039 24.3713 154.453 24.3713C154.922 24.3713 155.316 24.3088 155.637 24.1838C155.957 24.051 156.199 23.8752 156.363 23.6565C156.527 23.4299 156.609 23.1721 156.609 22.8831ZM167.988 13.6721V15.8987H160.723V13.6721H167.988ZM162.668 10.5549H165.773V22.6956C165.773 23.0706 165.824 23.3596 165.926 23.5627C166.027 23.7659 166.18 23.9026 166.383 23.9729C166.586 24.0432 166.828 24.0784 167.109 24.0784C167.312 24.0784 167.5 24.0667 167.672 24.0432C167.844 24.0198 167.988 23.9963 168.105 23.9729L168.117 26.2932C167.859 26.3792 167.566 26.4495 167.238 26.5042C166.918 26.5588 166.555 26.5862 166.148 26.5862C165.453 26.5862 164.844 26.469 164.32 26.2346C163.797 25.9924 163.391 25.6057 163.102 25.0745C162.812 24.5354 162.668 23.8245 162.668 22.9417V10.5549ZM173.332 13.6721V26.3518H170.227V13.6721H173.332ZM170.016 10.3557C170.016 9.89478 170.172 9.51196 170.484 9.20728C170.805 8.90259 171.234 8.75024 171.773 8.75024C172.312 8.75024 172.738 8.90259 173.051 9.20728C173.371 9.51196 173.531 9.89478 173.531 10.3557C173.531 10.8088 173.371 11.1877 173.051 11.4924C172.738 11.7971 172.312 11.9495 171.773 11.9495C171.234 11.9495 170.805 11.7971 170.484 11.4924C170.172 11.1877 170.016 10.8088 170.016 10.3557ZM179.379 16.262V26.3518H176.285V13.6721H179.215L179.379 16.262ZM183.234 13.5901L183.188 16.4729C183.016 16.4417 182.82 16.4182 182.602 16.4026C182.391 16.387 182.191 16.3792 182.004 16.3792C181.527 16.3792 181.109 16.4456 180.75 16.5784C180.391 16.7034 180.09 16.887 179.848 17.1292C179.613 17.3713 179.434 17.6682 179.309 18.0198C179.184 18.3635 179.113 18.7542 179.098 19.1917L178.43 19.1096C178.43 18.3049 178.512 17.5588 178.676 16.8713C178.84 16.1838 179.078 15.5823 179.391 15.0667C179.703 14.551 180.094 14.1526 180.562 13.8713C181.039 13.5823 181.586 13.4377 182.203 13.4377C182.375 13.4377 182.559 13.4534 182.754 13.4846C182.957 13.5081 183.117 13.5432 183.234 13.5901Z" fill="#90C200"/>
</svg>
